<svg id="Ebene_2" data-name="Ebene 2" xmlns="http://www.w3.org/2000/svg" xmlns:xlink="http://www.w3.org/1999/xlink" viewBox="0 0 473.79 449.43"><defs><style>.cls-1{fill:none;}.cls-2{clip-path:url(#clip-path);}.cls-3{fill:#0c89cb;}</style><clipPath id="clip-path"><rect class="cls-1" x="-0.3" y="-0.29" width="474.4" height="450"/></clipPath></defs><g class="cls-2"><path class="cls-3" d="M8.9,440.61h456V8.81H8.9v431.8Zm465.2,9.1H-.3V-.29H474v450Z"/></g><path class="cls-3" d="M153.5,85.61a7.5,7.5,0,1,1-7.5-7.5,7.55,7.55,0,0,1,7.5,7.5"/><polygon class="cls-3" points="134 70.61 118.9 70.61 100.9 138.31 152.1 138.31 156.1 123.31 120.1 123.31 134 70.61 134 70.61"/><path class="cls-3" d="M126.4,153.41a45.1,45.1,0,1,1,45.1-45.1,45.11,45.11,0,0,1-45.1,45.1Zm0-105.4a60.3,60.3,0,1,0,60.3,60.3h0A60.3,60.3,0,0,0,126.4,48Z"/><path class="cls-3" d="M220.2,106.31a4,4,0,0,0,2.8-.8,2.88,2.88,0,0,0,1-2.5q0-3.3-4.2-3.3h-3.1v6.6Zm1.2-10.2a7.63,7.63,0,0,1,5.4,1.9,6.66,6.66,0,0,1,2.1,4.9,6,6,0,0,1-2.1,4.9,7.87,7.87,0,0,1-5.5,1.9h-4.4v9.9h-4.6V96l9.1.1Z"/><path class="cls-3" d="M242.6,103.61a2.93,2.93,0,0,1,1.6.4,12.23,12.23,0,0,1,1.9,1.2l-1.5,3.6a5.15,5.15,0,0,0-2.9-1.3,3.16,3.16,0,0,0-1.9.7,5.5,5.5,0,0,0-1.5,1.9,4.75,4.75,0,0,0-.6,2.4v7.2h-4.1v-15.8h4.1v4h.1a10.37,10.37,0,0,1,2.3-3.3,4.59,4.59,0,0,1,2.5-1Z"/><path class="cls-3" d="M252.6,111.81a5.27,5.27,0,0,0,1.2,3.8,3.79,3.79,0,0,0,3.1,1.4,3.89,3.89,0,0,0,3.2-1.3,6,6,0,0,0,1.2-3.9,5,5,0,0,0-1.2-3.7,3.89,3.89,0,0,0-3.2-1.3,4.1,4.1,0,0,0-3.1,1.4,5.4,5.4,0,0,0-1.2,3.6Zm4.3-8.2a9.88,9.88,0,0,1,4.5,1,6.69,6.69,0,0,1,3.1,2.9,8.77,8.77,0,0,1,1.1,4.2,8.12,8.12,0,0,1-1.1,4.3,7.24,7.24,0,0,1-3.1,2.9,10,10,0,0,1-4.5,1.1,8.83,8.83,0,0,1-4.5-1.1,7.24,7.24,0,0,1-3.1-2.9,9.16,9.16,0,0,1-1.1-4.3,8.77,8.77,0,0,1,1.1-4.2,7.89,7.89,0,0,1,3.1-2.9,12.2,12.2,0,0,1,4.5-1Z"/><path class="cls-3" d="M277.3,95.81a7.57,7.57,0,0,1,1.5.1,5.64,5.64,0,0,1,1.2.4v3.4a5.84,5.84,0,0,0-1.9-.2,2.65,2.65,0,0,0-2.2.8,3.46,3.46,0,0,0-.7,2.6V104h2.7v3.1h-2.7v12.6h-4.1v-12.6h-2.2V104h2.2v-1.2a7.34,7.34,0,0,1,1.7-5.1,5.83,5.83,0,0,1,4.5-1.9Z"/><path class="cls-3" d="M292.5,110.11a4.49,4.49,0,0,0-1-2.7,3.1,3.1,0,0,0-2.4-1,3.84,3.84,0,0,0-2.5.9,4.74,4.74,0,0,0-1.2,2.7l7.1.1Zm-3.6-6.5a7,7,0,0,1,5.5,2.2,8.61,8.61,0,0,1,2,6.2v.6H285.3a4.94,4.94,0,0,0,1.6,3.2,5.16,5.16,0,0,0,3.6,1.1,9.82,9.82,0,0,0,2.9-.5,9.7,9.7,0,0,0,2.8-1.6v3.1a12.24,12.24,0,0,1-6.7,2,8.68,8.68,0,0,1-6.1-2.2,7.92,7.92,0,0,1-2.4-6,7.56,7.56,0,0,1,7.9-8.1Z"/><path class="cls-3" d="M306.5,103.61a10.65,10.65,0,0,1,4.8,1.2v3.3a11.51,11.51,0,0,0-2.5-1.2,10.27,10.27,0,0,0-2.4-.5,3.19,3.19,0,0,0-1.4.3,1.23,1.23,0,0,0-.5,1,1,1,0,0,0,.4.7,17.1,17.1,0,0,0,2.3,1.3,13.91,13.91,0,0,1,3.8,2.5,3.93,3.93,0,0,1,1.1,2.8,4.22,4.22,0,0,1-1.6,3.6,6.47,6.47,0,0,1-4.3,1.3,10.55,10.55,0,0,1-3.1-.4,9.89,9.89,0,0,1-2.4-.9v-3.5a10.33,10.33,0,0,0,5.1,1.7,3.29,3.29,0,0,0,1.7-.4,1.45,1.45,0,0,0,.7-1,1.85,1.85,0,0,0-.2-.7c-.2-.2-.4-.5-.7-.6s-1.3-.7-3-1.5a8,8,0,0,1-2.8-2,3.84,3.84,0,0,1-.9-2.5,4.08,4.08,0,0,1,1.6-3.3,7.72,7.72,0,0,1,4.3-1.2Z"/><path class="cls-3" d="M322.1,103.61a10.65,10.65,0,0,1,4.8,1.2v3.3a11.51,11.51,0,0,0-2.5-1.2,10.27,10.27,0,0,0-2.4-.5,3.19,3.19,0,0,0-1.4.3,1.23,1.23,0,0,0-.5,1,1,1,0,0,0,.4.7,17.1,17.1,0,0,0,2.3,1.3,13.91,13.91,0,0,1,3.8,2.5,3.93,3.93,0,0,1,1.1,2.8,4.22,4.22,0,0,1-1.6,3.6,6.47,6.47,0,0,1-4.3,1.3,10.55,10.55,0,0,1-3.1-.4,9.89,9.89,0,0,1-2.4-.9v-3.5a10.33,10.33,0,0,0,5.1,1.7,3.29,3.29,0,0,0,1.7-.4,1.45,1.45,0,0,0,.7-1,1.85,1.85,0,0,0-.2-.7c-.2-.2-.4-.5-.7-.6s-1.3-.7-3-1.5a8,8,0,0,1-2.8-2,3.84,3.84,0,0,1-.9-2.5,4.08,4.08,0,0,1,1.6-3.3,8.21,8.21,0,0,1,4.3-1.2Z"/><path class="cls-3" d="M337,103.91v15.8h-4.1v-15.8Zm-2.1-7.2a2.33,2.33,0,0,1,2.3,2.3,2,2,0,0,1-.7,1.6,2.24,2.24,0,0,1-3.2.1l-.1-.1a2.29,2.29,0,0,1,0-3.3,2.72,2.72,0,0,1,1.7-.6Z"/><path class="cls-3" d="M346.5,111.81a5.27,5.27,0,0,0,1.2,3.8,3.79,3.79,0,0,0,3.1,1.4,3.89,3.89,0,0,0,3.2-1.3,6,6,0,0,0,1.2-3.9,5,5,0,0,0-1.2-3.7,3.89,3.89,0,0,0-3.2-1.3,4.1,4.1,0,0,0-3.1,1.4,5.4,5.4,0,0,0-1.2,3.6Zm4.3-8.2a9.88,9.88,0,0,1,4.5,1,6.69,6.69,0,0,1,3.1,2.9,8.77,8.77,0,0,1,1.1,4.2,8.12,8.12,0,0,1-1.1,4.3,7.24,7.24,0,0,1-3.1,2.9,10,10,0,0,1-4.5,1.1,8.83,8.83,0,0,1-4.5-1.1,7.24,7.24,0,0,1-3.1-2.9,9.16,9.16,0,0,1-1.1-4.3,8.77,8.77,0,0,1,1.1-4.2,7.89,7.89,0,0,1,3.1-2.9,12.2,12.2,0,0,1,4.5-1Z"/><path class="cls-3" d="M373.7,103.61a4.78,4.78,0,0,1,4,1.7,6.37,6.37,0,0,1,1.5,4.4v10h-4.1v-9.6a4,4,0,0,0-.7-2.4,2.52,2.52,0,0,0-2-.9,3,3,0,0,0-1.8.6,11.38,11.38,0,0,0-1.9,1.9v10.4h-4.1v-15.8h4.1v2.2a5.66,5.66,0,0,1,2.4-1.9,5.83,5.83,0,0,1,2.6-.6Z"/><path class="cls-3" d="M388.1,115.51a1.74,1.74,0,0,0,1.9,1.9,4.47,4.47,0,0,0,2.7-1.2v-4.1c-.9.3-1.8.7-2.7,1.1a7.17,7.17,0,0,0-1.5,1.1,1.46,1.46,0,0,0-.4,1.2Zm2.5-11.9a6.89,6.89,0,0,1,4.6,1.3,4.22,4.22,0,0,1,1.6,3.6v7.7c0,.6.2.9.7.9a1.61,1.61,0,0,0,.9-.3l.9-.6v2.4a7.32,7.32,0,0,1-4,1.3,3.29,3.29,0,0,1-1.7-.4,2.22,2.22,0,0,1-.8-1.3,8.23,8.23,0,0,1-4.8,1.7,4.36,4.36,0,0,1-2.9-1.1,3.57,3.57,0,0,1-1.2-2.7,4.14,4.14,0,0,1,1.2-3.2,10.81,10.81,0,0,1,4.3-2.1l3.4-1v-.7c0-1.5-.9-2.3-2.8-2.3a5.92,5.92,0,0,0-2.9.7,8.32,8.32,0,0,0-2.6,1.9v-3.7a9.61,9.61,0,0,1,6.1-2.1Z"/><polygon class="cls-3" points="407.6 96.11 407.6 119.71 403.5 119.71 403.5 96.11 407.6 96.11 407.6 96.11"/><polygon class="cls-3" points="216.9 133.01 216.9 156.61 212.3 156.61 212.3 133.01 216.9 133.01 216.9 133.01"/><path class="cls-3" d="M232.5,140.51a4.78,4.78,0,0,1,4,1.7,6.37,6.37,0,0,1,1.5,4.4v10h-4.1V147a4,4,0,0,0-.7-2.4,2.52,2.52,0,0,0-2-.9,3,3,0,0,0-1.8.6,11.38,11.38,0,0,0-1.9,1.9v10.5h-4.1v-15.8h4.1v2.2a5.66,5.66,0,0,1,2.4-1.9,4.84,4.84,0,0,1,2.6-.7Z"/><path class="cls-3" d="M248.9,140.51a10.65,10.65,0,0,1,4.8,1.2V145a11.51,11.51,0,0,0-2.5-1.2,10.27,10.27,0,0,0-2.4-.5,3.19,3.19,0,0,0-1.4.3,1.23,1.23,0,0,0-.5,1,1,1,0,0,0,.4.7,17.1,17.1,0,0,0,2.3,1.3,13.91,13.91,0,0,1,3.8,2.5,3.93,3.93,0,0,1,1.1,2.8,4.22,4.22,0,0,1-1.6,3.6,6.47,6.47,0,0,1-4.3,1.3,10.55,10.55,0,0,1-3.1-.4,9.89,9.89,0,0,1-2.4-.9V152a10.33,10.33,0,0,0,5.1,1.7,3.29,3.29,0,0,0,1.7-.4,1.45,1.45,0,0,0,.7-1,1.85,1.85,0,0,0-.2-.7c-.2-.2-.4-.5-.7-.6s-1.3-.7-3-1.5a8,8,0,0,1-2.8-2,3.84,3.84,0,0,1-.9-2.5,4.08,4.08,0,0,1,1.6-3.3,6.72,6.72,0,0,1,4.3-1.2Z"/><path class="cls-3" d="M263.8,136.61h.3v4.2h5.4v3.1h-5.4v7.3a2.52,2.52,0,0,0,.6,1.7,2.41,2.41,0,0,0,1.8.7,7.49,7.49,0,0,0,3.3-1v3.3a10.35,10.35,0,0,1-4.2,1,5.61,5.61,0,0,1-4.2-1.5,5.19,5.19,0,0,1-1.5-3.9V144h-2.5v-.7l6.4-6.7Z"/><path class="cls-3" d="M278.3,140.81v15.8h-4.1v-15.8Zm-2.1-7.3a2.33,2.33,0,0,1,2.3,2.3,2,2,0,0,1-.7,1.6,2.24,2.24,0,0,1-3.2.1l-.1-.1a2.29,2.29,0,0,1,0-3.3,2.72,2.72,0,0,1,1.7-.6Z"/><path class="cls-3" d="M288.6,136.61h.3v4.2h5.4v3.1h-5.4v7.3a2.52,2.52,0,0,0,.6,1.7,2.41,2.41,0,0,0,1.8.7,7.49,7.49,0,0,0,3.3-1v3.3a10.35,10.35,0,0,1-4.2,1,5.61,5.61,0,0,1-4.2-1.5,5.19,5.19,0,0,1-1.5-3.9V144h-2.5v-.7l6.4-6.7Z"/><path class="cls-3" d="M302.8,140.81v9.7a2.86,2.86,0,0,0,.8,2.3,3,3,0,0,0,2,.8,3.61,3.61,0,0,0,2-.6,5.48,5.48,0,0,0,1.6-1.8v-10.4h4.1v15.8h-4.1v-2.1a6.31,6.31,0,0,1-4.9,2.4,5.1,5.1,0,0,1-4.1-1.7,6.21,6.21,0,0,1-1.6-4.3v-10.1Z"/><path class="cls-3" d="M323.5,136.61h.3v4.2h5.4v3.1h-5.4v7.3a2.52,2.52,0,0,0,.6,1.7,2.41,2.41,0,0,0,1.8.7,7.49,7.49,0,0,0,3.3-1v3.3a10.35,10.35,0,0,1-4.2,1,5.61,5.61,0,0,1-4.2-1.5,5.19,5.19,0,0,1-1.5-3.9V144h-2.5v-.7l6.4-6.7Z"/><path class="cls-3" d="M344.3,147a4.49,4.49,0,0,0-1-2.7,3.1,3.1,0,0,0-2.4-1,3.84,3.84,0,0,0-2.5.9,4.74,4.74,0,0,0-1.2,2.7l7.1.1Zm-3.6-6.5a7,7,0,0,1,5.5,2.2,8.61,8.61,0,0,1,2,6.2v.6H337.1a4.94,4.94,0,0,0,1.6,3.2,5.16,5.16,0,0,0,3.6,1.1,9.82,9.82,0,0,0,2.9-.5,9.7,9.7,0,0,0,2.8-1.6v3.1a12.24,12.24,0,0,1-6.7,2,8.68,8.68,0,0,1-6.1-2.2,7.92,7.92,0,0,1-2.4-6,8.05,8.05,0,0,1,2.2-5.9,7.46,7.46,0,0,1,5.7-2.2Z"/><polygon class="cls-3" points="216.8 59.11 216.8 79.11 228.2 79.11 228.2 82.71 212.2 82.71 212.2 59.11 216.8 59.11 216.8 59.11"/><path class="cls-3" d="M236.9,67v15.7h-4.1V67Zm-2.1-7.3a2.33,2.33,0,0,1,2.3,2.3,2,2,0,0,1-.7,1.6,2.24,2.24,0,0,1-3.2.1l-.1-.1a2.29,2.29,0,0,1,0-3.3,2.72,2.72,0,0,1,1.7-.6Z"/><path class="cls-3" d="M252,66.61a4.78,4.78,0,0,1,4,1.7,6.37,6.37,0,0,1,1.5,4.4v10h-4.1v-9.6a4,4,0,0,0-.7-2.4,2.52,2.52,0,0,0-2-.9,3,3,0,0,0-1.8.6,11.38,11.38,0,0,0-1.9,1.9v10.4h-4.1V67H247v2.2a5.66,5.66,0,0,1,2.4-1.9,4.84,4.84,0,0,1,2.6-.7Z"/><path class="cls-3" d="M267.3,67v9.7a2.86,2.86,0,0,0,.8,2.3,3,3,0,0,0,2,.8,3.61,3.61,0,0,0,2-.6,5.48,5.48,0,0,0,1.6-1.8V67h4.1v15.7h-4.1v-2.1a6.31,6.31,0,0,1-4.9,2.4,5.1,5.1,0,0,1-4.1-1.7,6.21,6.21,0,0,1-1.6-4.3V67Z"/><polygon class="cls-3" points="286.6 67.01 290.5 71.91 294.3 67.01 299.3 67.01 293 74.71 299.8 82.71 294.8 82.71 290.5 77.51 286.4 82.71 281.6 82.71 288.1 74.71 281.6 67.01 286.6 67.01 286.6 67.01"/><polygon class="cls-3" points="131.65 268.38 131.65 309.38 155.07 309.38 155.07 316.64 122.35 316.64 122.35 268.31 131.65 268.31 131.65 268.38 131.65 268.38"/><polygon class="cls-3" points="173.87 268.38 173.87 316.71 164.5 316.71 164.5 268.38 173.87 268.38 173.87 268.38 173.87 268.38"/><polygon class="cls-3" points="195.79 268.38 224.5 302.12 224.5 268.38 233.6 268.38 233.6 316.71 225.59 316.71 196.74 282.43 196.74 316.71 187.65 316.71 187.65 268.38 195.79 268.38 195.79 268.38 195.79 268.38"/><path class="cls-3" d="M256,268.38v28.1a15.12,15.12,0,0,0,1.29,6.86,10.05,10.05,0,0,0,4.21,4.21,13.45,13.45,0,0,0,6.85,1.62,15.66,15.66,0,0,0,7.26-1.56,9.82,9.82,0,0,0,4.35-4.27,16.67,16.67,0,0,0,1.36-7.54V268.31h9.36V297c0,6.52-2,11.48-5.83,15s-9.44,5.22-16.5,5.22a27.21,27.21,0,0,1-11.6-2.37,17.29,17.29,0,0,1-7.54-6.93,20.85,20.85,0,0,1-2.58-10.59V268.31l9.37.07Z"/><polygon class="cls-3" points="312.2 268.38 325.5 284.74 338.6 268.38 350.21 268.38 331.34 291.66 352.04 316.64 340.16 316.64 325.5 298.59 310.84 316.64 299.1 316.64 319.6 291.66 300.46 268.38 312.2 268.38 312.2 268.38"/><polygon class="cls-3" points="92.2 353.55 92.2 359.35 74.7 359.35 74.7 369.55 91.5 369.55 91.5 375.35 74.7 375.35 74.7 386.35 92.6 386.35 92.6 392.15 67.2 392.15 67.2 353.55 92.2 353.55 92.2 353.55 92.2 353.55"/><path class="cls-3" d="M113,353.05a23.25,23.25,0,0,1,10.9,2.8v6.6c-4-2.4-7.6-3.6-10.7-3.6a7.61,7.61,0,0,0-4.4,1.1,3.36,3.36,0,0,0-1.6,2.9c0,1.5,1,2.8,3,4,.6.4,2.7,1.4,6.4,3.1a18.84,18.84,0,0,1,6.9,5,10.41,10.41,0,0,1,2.1,6.6,9.77,9.77,0,0,1-3.6,8,14.13,14.13,0,0,1-9.3,3.1,22.93,22.93,0,0,1-6.4-.8,27.28,27.28,0,0,1-6-2.8v-7.4q6.15,5.1,11.7,5.1a6.84,6.84,0,0,0,4.4-1.2,3.73,3.73,0,0,0,1.7-3.2c0-1.8-1-3.2-2.9-4.4-1.6-.9-3.7-1.9-6.3-3.2a19.15,19.15,0,0,1-6.8-4.8,10,10,0,0,1-2.3-6.4,9.52,9.52,0,0,1,3.6-7.8,16.53,16.53,0,0,1,9.6-2.7Z"/><path class="cls-3" d="M145.5,353.05a23.25,23.25,0,0,1,10.9,2.8v6.6c-4-2.4-7.6-3.6-10.7-3.6a7.61,7.61,0,0,0-4.4,1.1,3.36,3.36,0,0,0-1.6,2.9c0,1.5,1,2.8,3,4,.6.4,2.7,1.4,6.4,3.1a18.84,18.84,0,0,1,6.9,5,10.41,10.41,0,0,1,2.1,6.6,9.77,9.77,0,0,1-3.6,8,14.13,14.13,0,0,1-9.3,3.1,22.93,22.93,0,0,1-6.4-.8,27.28,27.28,0,0,1-6-2.8v-7.4q6.15,5.1,11.7,5.1a6.84,6.84,0,0,0,4.4-1.2,3.73,3.73,0,0,0,1.7-3.2c0-1.8-1-3.2-2.9-4.4-1.6-.9-3.7-1.9-6.3-3.2a19.15,19.15,0,0,1-6.8-4.8,10,10,0,0,1-2.3-6.4,9.52,9.52,0,0,1,3.6-7.8,16.76,16.76,0,0,1,9.6-2.7Z"/><polygon class="cls-3" points="191.8 353.55 191.8 359.35 174.3 359.35 174.3 369.55 191.1 369.55 191.1 375.35 174.3 375.35 174.3 386.35 192.2 386.35 192.2 392.15 166.9 392.15 166.9 353.55 191.8 353.55 191.8 353.55 191.8 353.55"/><polygon class="cls-3" points="208 353.55 231 380.55 231 353.55 238.3 353.55 238.3 392.15 231.9 392.15 208.8 364.75 208.8 392.15 201.5 392.15 201.5 353.55 208 353.55 208 353.55"/><polygon class="cls-3" points="281.1 353.55 281.1 359.35 267.4 359.35 267.4 392.15 259.9 392.15 259.9 359.35 246.2 359.35 246.2 353.55 281.1 353.55 281.1 353.55"/><polygon class="cls-3" points="296.7 353.55 296.7 392.15 289.2 392.15 289.2 353.55 296.7 353.55 296.7 353.55"/><path class="cls-3" d="M317.5,377.15H330l-6.5-15.3-6,15.3Zm9.7-23.6,17.1,38.6h-7.9l-4-9.4H315.2l-3.7,9.4h-7.8l15.9-38.6Z"/><polygon class="cls-3" points="358.6 353.55 358.6 386.35 377.4 386.35 377.4 392.15 351.2 392.15 351.2 353.55 358.6 353.55 358.6 353.55 358.6 353.55"/><path class="cls-3" d="M395.9,353.05a23.25,23.25,0,0,1,10.9,2.8v6.6c-4-2.4-7.6-3.6-10.7-3.6a7.61,7.61,0,0,0-4.4,1.1,3.36,3.36,0,0,0-1.6,2.9c0,1.5,1,2.8,3,4,.6.4,2.7,1.4,6.4,3.1a18.84,18.84,0,0,1,6.9,5,10.41,10.41,0,0,1,2.1,6.6,9.77,9.77,0,0,1-3.6,8,14.13,14.13,0,0,1-9.3,3.1,22.93,22.93,0,0,1-6.4-.8,27.28,27.28,0,0,1-6-2.8v-7.4q6.15,5.1,11.7,5.1a6.84,6.84,0,0,0,4.4-1.2,3.73,3.73,0,0,0,1.7-3.2c0-1.8-1-3.2-2.9-4.4-1.6-.9-3.7-1.9-6.3-3.2A19.15,19.15,0,0,1,385,370a10,10,0,0,1-2.3-6.4,9.52,9.52,0,0,1,3.6-7.8,16.3,16.3,0,0,1,9.6-2.7Z"/><polygon class="cls-3" points="92.5 201.81 381.3 201.81 381.3 204.81 92.5 204.81 92.5 201.81 92.5 201.81"/></svg>